<mxfile host="app.diagrams.net" modified="2022-06-07T01:21:06.383Z" agent="5.0 (Macintosh; Intel Mac OS X 10_14_6) AppleWebKit/537.36 (KHTML, like Gecko) Chrome/102.0.5005.61 Safari/537.36" etag="V1_mGVP5Fv1u1l4O7Wku" version="19.0.0" type="github">
  <diagram id="ts0ojw1lq8GIrLRG7GDI" name="Page-1">
    <mxGraphModel dx="1951" dy="1057" grid="0" gridSize="10" guides="1" tooltips="1" connect="1" arrows="1" fold="1" page="0" pageScale="1" pageWidth="827" pageHeight="1169" math="0" shadow="0">
      <root>
        <mxCell id="0" />
        <mxCell id="1" parent="0" />
        <mxCell id="zhXcUo0Y35zvq-o9YxML-7" value="" style="edgeStyle=orthogonalEdgeStyle;rounded=0;orthogonalLoop=1;jettySize=auto;html=1;" parent="1" source="zhXcUo0Y35zvq-o9YxML-5" target="zhXcUo0Y35zvq-o9YxML-6" edge="1">
          <mxGeometry relative="1" as="geometry" />
        </mxCell>
        <mxCell id="zhXcUo0Y35zvq-o9YxML-5" value="rota/LOGIN&lt;br&gt;Entidade/USUARIO" style="rounded=1;whiteSpace=wrap;html=1;" parent="1" vertex="1">
          <mxGeometry x="-329" y="334" width="120" height="60" as="geometry" />
        </mxCell>
        <mxCell id="zhXcUo0Y35zvq-o9YxML-6" value="senha&lt;br&gt;email&lt;br&gt;nome&lt;br&gt;&lt;b&gt;telefone&lt;/b&gt;" style="rounded=1;whiteSpace=wrap;html=1;" parent="1" vertex="1">
          <mxGeometry x="-329" y="170" width="120" height="60" as="geometry" />
        </mxCell>
        <mxCell id="zhXcUo0Y35zvq-o9YxML-8" value="" style="edgeStyle=orthogonalEdgeStyle;rounded=0;orthogonalLoop=1;jettySize=auto;html=1;" parent="1" source="zhXcUo0Y35zvq-o9YxML-9" target="zhXcUo0Y35zvq-o9YxML-10" edge="1">
          <mxGeometry relative="1" as="geometry" />
        </mxCell>
        <mxCell id="zhXcUo0Y35zvq-o9YxML-9" value="rota/CADASTRO&lt;br&gt;Entidade/USUARIO" style="rounded=1;whiteSpace=wrap;html=1;" parent="1" vertex="1">
          <mxGeometry x="-175" y="334" width="120" height="60" as="geometry" />
        </mxCell>
        <mxCell id="zhXcUo0Y35zvq-o9YxML-10" value="senha&lt;br&gt;email&lt;br&gt;nome&lt;br&gt;&lt;b&gt;telefone&lt;/b&gt;" style="rounded=1;whiteSpace=wrap;html=1;" parent="1" vertex="1">
          <mxGeometry x="-175" y="170" width="120" height="60" as="geometry" />
        </mxCell>
        <mxCell id="zhXcUo0Y35zvq-o9YxML-11" value="" style="edgeStyle=orthogonalEdgeStyle;rounded=0;orthogonalLoop=1;jettySize=auto;html=1;" parent="1" source="zhXcUo0Y35zvq-o9YxML-12" target="zhXcUo0Y35zvq-o9YxML-13" edge="1">
          <mxGeometry relative="1" as="geometry" />
        </mxCell>
        <mxCell id="zhXcUo0Y35zvq-o9YxML-12" value="rota/CADASTRO_CORRIDA&lt;br&gt;Entidade/CORRIDA" style="rounded=1;whiteSpace=wrap;html=1;" parent="1" vertex="1">
          <mxGeometry x="-36" y="325" width="181" height="69" as="geometry" />
        </mxCell>
        <mxCell id="zhXcUo0Y35zvq-o9YxML-13" value="ORIGEM&lt;br&gt;DESTINO" style="rounded=1;whiteSpace=wrap;html=1;" parent="1" vertex="1">
          <mxGeometry x="-29.5" y="170" width="168" height="75" as="geometry" />
        </mxCell>
        <mxCell id="zhXcUo0Y35zvq-o9YxML-14" value="" style="edgeStyle=orthogonalEdgeStyle;rounded=0;orthogonalLoop=1;jettySize=auto;html=1;" parent="1" source="zhXcUo0Y35zvq-o9YxML-15" target="zhXcUo0Y35zvq-o9YxML-16" edge="1">
          <mxGeometry relative="1" as="geometry" />
        </mxCell>
        <mxCell id="zhXcUo0Y35zvq-o9YxML-15" value="rota/INICIO_CORRIDA&lt;br&gt;Entidade/CORRIDA" style="rounded=1;whiteSpace=wrap;html=1;" parent="1" vertex="1">
          <mxGeometry x="161" y="325" width="181" height="69" as="geometry" />
        </mxCell>
        <mxCell id="zhXcUo0Y35zvq-o9YxML-16" value="PLACA&lt;br&gt;PREVISAO&lt;br&gt;STATUS&lt;br&gt;" style="rounded=1;whiteSpace=wrap;html=1;" parent="1" vertex="1">
          <mxGeometry x="167.5" y="170" width="168" height="75" as="geometry" />
        </mxCell>
        <mxCell id="zhXcUo0Y35zvq-o9YxML-17" value="" style="edgeStyle=orthogonalEdgeStyle;rounded=0;orthogonalLoop=1;jettySize=auto;html=1;" parent="1" source="zhXcUo0Y35zvq-o9YxML-18" target="zhXcUo0Y35zvq-o9YxML-19" edge="1">
          <mxGeometry relative="1" as="geometry" />
        </mxCell>
        <mxCell id="zhXcUo0Y35zvq-o9YxML-18" value="rota/finalizar_CORRIDA&lt;br&gt;Entidade/CORRIDA" style="rounded=1;whiteSpace=wrap;html=1;" parent="1" vertex="1">
          <mxGeometry x="370" y="323" width="181" height="69" as="geometry" />
        </mxCell>
        <mxCell id="zhXcUo0Y35zvq-o9YxML-19" value="PLACA&lt;br&gt;destino&lt;br&gt;horario_chegada" style="rounded=1;whiteSpace=wrap;html=1;" parent="1" vertex="1">
          <mxGeometry x="376.5" y="168" width="168" height="75" as="geometry" />
        </mxCell>
        <mxCell id="zhXcUo0Y35zvq-o9YxML-20" value="" style="edgeStyle=orthogonalEdgeStyle;rounded=0;orthogonalLoop=1;jettySize=auto;html=1;" parent="1" source="zhXcUo0Y35zvq-o9YxML-21" target="zhXcUo0Y35zvq-o9YxML-22" edge="1">
          <mxGeometry relative="1" as="geometry" />
        </mxCell>
        <mxCell id="zhXcUo0Y35zvq-o9YxML-21" value="rota/historico_corridas&lt;br&gt;ENTIDADE/USUARIO/CORRIDAS" style="rounded=1;whiteSpace=wrap;html=1;" parent="1" vertex="1">
          <mxGeometry x="566" y="323" width="191" height="68" as="geometry" />
        </mxCell>
        <mxCell id="zhXcUo0Y35zvq-o9YxML-22" value="PLACA&lt;br&gt;destino&lt;br&gt;horario_chegada" style="rounded=1;whiteSpace=wrap;html=1;" parent="1" vertex="1">
          <mxGeometry x="577.5" y="168" width="168" height="75" as="geometry" />
        </mxCell>
        <mxCell id="R-DZJOgb-ujZ8b4K5CBA-5" value="Usuario" style="swimlane;fontStyle=1;align=center;verticalAlign=top;childLayout=stackLayout;horizontal=1;startSize=26;horizontalStack=0;resizeParent=1;resizeParentMax=0;resizeLast=0;collapsible=1;marginBottom=0;" parent="1" vertex="1">
          <mxGeometry x="-521" y="-328" width="249" height="216" as="geometry" />
        </mxCell>
        <mxCell id="R-DZJOgb-ujZ8b4K5CBA-6" value="Nome varchar(100)" style="text;strokeColor=none;fillColor=none;align=left;verticalAlign=top;spacingLeft=4;spacingRight=4;overflow=hidden;rotatable=0;points=[[0,0.5],[1,0.5]];portConstraint=eastwest;" parent="R-DZJOgb-ujZ8b4K5CBA-5" vertex="1">
          <mxGeometry y="26" width="249" height="26" as="geometry" />
        </mxCell>
        <mxCell id="R-DZJOgb-ujZ8b4K5CBA-7" value="" style="line;strokeWidth=1;fillColor=none;align=left;verticalAlign=middle;spacingTop=-1;spacingLeft=3;spacingRight=3;rotatable=0;labelPosition=right;points=[];portConstraint=eastwest;" parent="R-DZJOgb-ujZ8b4K5CBA-5" vertex="1">
          <mxGeometry y="52" width="249" height="8" as="geometry" />
        </mxCell>
        <mxCell id="R-DZJOgb-ujZ8b4K5CBA-13" value="Senha varchar(50)" style="text;strokeColor=none;fillColor=none;align=left;verticalAlign=top;spacingLeft=4;spacingRight=4;overflow=hidden;rotatable=0;points=[[0,0.5],[1,0.5]];portConstraint=eastwest;" parent="R-DZJOgb-ujZ8b4K5CBA-5" vertex="1">
          <mxGeometry y="60" width="249" height="26" as="geometry" />
        </mxCell>
        <mxCell id="R-DZJOgb-ujZ8b4K5CBA-14" value="Email varchar(100)" style="text;strokeColor=none;fillColor=none;align=left;verticalAlign=top;spacingLeft=4;spacingRight=4;overflow=hidden;rotatable=0;points=[[0,0.5],[1,0.5]];portConstraint=eastwest;" parent="R-DZJOgb-ujZ8b4K5CBA-5" vertex="1">
          <mxGeometry y="86" width="249" height="26" as="geometry" />
        </mxCell>
        <mxCell id="R-DZJOgb-ujZ8b4K5CBA-15" value="Telefone int(11)" style="text;strokeColor=none;fillColor=none;align=left;verticalAlign=top;spacingLeft=4;spacingRight=4;overflow=hidden;rotatable=0;points=[[0,0.5],[1,0.5]];portConstraint=eastwest;" parent="R-DZJOgb-ujZ8b4K5CBA-5" vertex="1">
          <mxGeometry y="112" width="249" height="26" as="geometry" />
        </mxCell>
        <mxCell id="R-DZJOgb-ujZ8b4K5CBA-23" value="método: criptografarSenha()" style="text;strokeColor=none;fillColor=none;align=left;verticalAlign=top;spacingLeft=4;spacingRight=4;overflow=hidden;rotatable=0;points=[[0,0.5],[1,0.5]];portConstraint=eastwest;" parent="R-DZJOgb-ujZ8b4K5CBA-5" vertex="1">
          <mxGeometry y="138" width="249" height="26" as="geometry" />
        </mxCell>
        <mxCell id="R-DZJOgb-ujZ8b4K5CBA-24" value="método: usuarioUnico(id, email, telefone)" style="text;strokeColor=none;fillColor=none;align=left;verticalAlign=top;spacingLeft=4;spacingRight=4;overflow=hidden;rotatable=0;points=[[0,0.5],[1,0.5]];portConstraint=eastwest;" parent="R-DZJOgb-ujZ8b4K5CBA-5" vertex="1">
          <mxGeometry y="164" width="249" height="26" as="geometry" />
        </mxCell>
        <mxCell id="R-DZJOgb-ujZ8b4K5CBA-25" value="método: validaEmailUsuario()" style="text;strokeColor=none;fillColor=none;align=left;verticalAlign=top;spacingLeft=4;spacingRight=4;overflow=hidden;rotatable=0;points=[[0,0.5],[1,0.5]];portConstraint=eastwest;" parent="R-DZJOgb-ujZ8b4K5CBA-5" vertex="1">
          <mxGeometry y="190" width="249" height="26" as="geometry" />
        </mxCell>
        <mxCell id="R-DZJOgb-ujZ8b4K5CBA-9" value="Corrida" style="swimlane;fontStyle=1;align=center;verticalAlign=top;childLayout=stackLayout;horizontal=1;startSize=26;horizontalStack=0;resizeParent=1;resizeParentMax=0;resizeLast=0;collapsible=1;marginBottom=0;" parent="1" vertex="1">
          <mxGeometry x="-258" y="-323" width="301" height="242" as="geometry" />
        </mxCell>
        <mxCell id="R-DZJOgb-ujZ8b4K5CBA-10" value="Veiculo varchar(20)" style="text;strokeColor=none;fillColor=none;align=left;verticalAlign=top;spacingLeft=4;spacingRight=4;overflow=hidden;rotatable=0;points=[[0,0.5],[1,0.5]];portConstraint=eastwest;" parent="R-DZJOgb-ujZ8b4K5CBA-9" vertex="1">
          <mxGeometry y="26" width="301" height="26" as="geometry" />
        </mxCell>
        <mxCell id="R-DZJOgb-ujZ8b4K5CBA-11" value="" style="line;strokeWidth=1;fillColor=none;align=left;verticalAlign=middle;spacingTop=-1;spacingLeft=3;spacingRight=3;rotatable=0;labelPosition=right;points=[];portConstraint=eastwest;" parent="R-DZJOgb-ujZ8b4K5CBA-9" vertex="1">
          <mxGeometry y="52" width="301" height="8" as="geometry" />
        </mxCell>
        <mxCell id="R-DZJOgb-ujZ8b4K5CBA-16" value="Origem varchar(50)" style="text;strokeColor=none;fillColor=none;align=left;verticalAlign=top;spacingLeft=4;spacingRight=4;overflow=hidden;rotatable=0;points=[[0,0.5],[1,0.5]];portConstraint=eastwest;" parent="R-DZJOgb-ujZ8b4K5CBA-9" vertex="1">
          <mxGeometry y="60" width="301" height="26" as="geometry" />
        </mxCell>
        <mxCell id="R-DZJOgb-ujZ8b4K5CBA-17" value="Destino varchar(50)" style="text;strokeColor=none;fillColor=none;align=left;verticalAlign=top;spacingLeft=4;spacingRight=4;overflow=hidden;rotatable=0;points=[[0,0.5],[1,0.5]];portConstraint=eastwest;" parent="R-DZJOgb-ujZ8b4K5CBA-9" vertex="1">
          <mxGeometry y="86" width="301" height="26" as="geometry" />
        </mxCell>
        <mxCell id="R-DZJOgb-ujZ8b4K5CBA-18" value="DatHoraSolicitacao Datetime" style="text;strokeColor=none;fillColor=none;align=left;verticalAlign=top;spacingLeft=4;spacingRight=4;overflow=hidden;rotatable=0;points=[[0,0.5],[1,0.5]];portConstraint=eastwest;" parent="R-DZJOgb-ujZ8b4K5CBA-9" vertex="1">
          <mxGeometry y="112" width="301" height="26" as="geometry" />
        </mxCell>
        <mxCell id="R-DZJOgb-ujZ8b4K5CBA-19" value="DataHoraFinalização Datetime" style="text;strokeColor=none;fillColor=none;align=left;verticalAlign=top;spacingLeft=4;spacingRight=4;overflow=hidden;rotatable=0;points=[[0,0.5],[1,0.5]];portConstraint=eastwest;" parent="R-DZJOgb-ujZ8b4K5CBA-9" vertex="1">
          <mxGeometry y="138" width="301" height="26" as="geometry" />
        </mxCell>
        <mxCell id="R-DZJOgb-ujZ8b4K5CBA-20" value="StatusCorrida" style="text;strokeColor=none;fillColor=none;align=left;verticalAlign=top;spacingLeft=4;spacingRight=4;overflow=hidden;rotatable=0;points=[[0,0.5],[1,0.5]];portConstraint=eastwest;" parent="R-DZJOgb-ujZ8b4K5CBA-9" vertex="1">
          <mxGeometry y="164" width="301" height="26" as="geometry" />
        </mxCell>
        <mxCell id="R-DZJOgb-ujZ8b4K5CBA-21" value="método: ValidaStatusCorrida()" style="text;strokeColor=none;fillColor=none;align=left;verticalAlign=top;spacingLeft=4;spacingRight=4;overflow=hidden;rotatable=0;points=[[0,0.5],[1,0.5]];portConstraint=eastwest;" parent="R-DZJOgb-ujZ8b4K5CBA-9" vertex="1">
          <mxGeometry y="190" width="301" height="26" as="geometry" />
        </mxCell>
        <mxCell id="R-DZJOgb-ujZ8b4K5CBA-22" value="método: ValidaDataHoraFim()" style="text;strokeColor=none;fillColor=none;align=left;verticalAlign=top;spacingLeft=4;spacingRight=4;overflow=hidden;rotatable=0;points=[[0,0.5],[1,0.5]];portConstraint=eastwest;" parent="R-DZJOgb-ujZ8b4K5CBA-9" vertex="1">
          <mxGeometry y="216" width="301" height="26" as="geometry" />
        </mxCell>
      </root>
    </mxGraphModel>
  </diagram>
</mxfile>
